<?xml version="1.0" encoding="UTF-8"?>
<svg width="307px" height="77px" viewBox="0 0 307 77" version="1.1" xmlns="http://www.w3.org/2000/svg" xmlns:xlink="http://www.w3.org/1999/xlink">
    <!-- Generator: Sketch 51.3 (57544) - http://www.bohemiancoding.com/sketch -->
    <title>Artboard</title>
    <desc>Created with Sketch.</desc>
    <defs>
        <linearGradient x1="4.08219282%" y1="50%" x2="97.0359309%" y2="50%" id="linearGradient-1">
            <stop stop-color="#EF7928" offset="0%"></stop>
            <stop stop-color="#EF5928" offset="100%"></stop>
        </linearGradient>
    </defs>
    <g id="Artboard" stroke="none" stroke-width="1" fill="none" fill-rule="evenodd">
        <g id="Group-2">
            <path d="M37.4471298,20.784704 L26.3567549,20.784704 L26.3567549,57.0471451 C26.3567549,59.135509 25.8889558,60.6847339 24.9533433,61.6948664 C24.0177309,62.7049989 22.8082988,63.2100576 21.3250108,63.2100576 C19.818903,63.2100576 18.5923563,62.6993241 17.645334,61.6778418 C16.6983117,60.6563595 16.2248076,59.1128094 16.2248076,57.0471451 L16.2248076,20.784704 L5.13443278,20.784704 C3.40012682,20.784704 2.11082659,20.4044913 1.26649342,19.6440545 C0.422160252,18.8836176 0,17.8791751 0,16.6306967 C0,15.3368191 0.439274856,14.3153521 1.31783775,13.5662651 C2.19640064,12.817178 3.46858626,12.4426401 5.13443278,12.4426401 L37.4471298,12.4426401 C39.2042555,12.4426401 40.5106704,12.8285277 41.3664134,13.6003143 C42.2221565,14.3721009 42.6500216,15.3822183 42.6500216,16.6306967 C42.6500216,17.8791751 42.2164517,18.8836176 41.3492987,19.6440545 C40.4821457,20.4044913 39.1814357,20.784704 37.4471298,20.784704 Z M64.2653773,57.9664746 C62.0062156,59.7143443 59.821251,61.025227 57.7104181,61.8991619 C55.5995852,62.7730967 53.2320649,63.2100576 50.6077861,63.2100576 C48.2117055,63.2100576 46.1066091,62.7390478 44.2924338,61.7970141 C42.4782585,60.8549804 41.0805657,59.5781467 40.0993137,57.9664746 C39.1180616,56.3548025 38.6274429,54.606959 38.6274429,52.7228916 C38.6274429,50.1805356 39.4375342,48.0127556 41.0577411,46.2194866 C42.677948,44.4262177 44.9028466,43.2231565 47.7325037,42.6102672 C48.3258189,42.4740695 49.797675,42.1676294 52.1481159,41.6909377 C54.4985569,41.2142459 56.5123754,40.777285 58.1896318,40.3800419 C59.8668883,39.9827988 61.6867412,39.5004394 63.6492454,38.9329492 C63.5351463,36.4813916 63.0388228,34.6824747 62.1602599,33.5361446 C61.281697,32.3898144 59.461844,31.8166579 56.7006463,31.8166579 C54.3273855,31.8166579 52.5417618,32.1457973 51.3437215,32.8040859 C50.1456812,33.4623745 49.1188049,34.4497926 48.2630618,35.7663698 C47.4073187,37.082947 46.8026027,37.951194 46.4488955,38.3711367 C46.0951884,38.7910795 45.3364409,39.0010477 44.1726303,39.0010477 C43.1229188,39.0010477 42.2158448,38.6662335 41.451381,37.9965951 C40.6869172,37.3269567 40.304691,36.4700594 40.304691,35.4258774 C40.304691,33.7915057 40.8865876,32.202557 42.0503981,30.6589838 C43.2142087,29.1154105 45.0283568,27.8442515 47.4928969,26.8454688 C49.9574369,25.8466861 53.0266561,25.3473023 56.7006463,25.3473023 C60.8082131,25.3473023 64.0371685,25.8296617 66.3876095,26.794395 C68.7380505,27.7591283 70.3981672,29.285654 71.3680093,31.3740178 C72.3378515,33.4623817 72.8227653,36.2316922 72.8227653,39.6820325 C72.8227653,41.8611948 72.8170604,43.711185 72.8056505,45.2320587 C72.7942406,46.7529323 72.777126,48.4440277 72.7543062,50.3053955 C72.7543062,52.0532652 73.0452545,53.8748814 73.6271597,55.7702986 C74.209065,57.6657158 74.5000133,58.8858014 74.5000133,59.4305919 C74.5000133,60.3839754 74.0493287,61.2522224 73.147946,62.0353588 C72.2465633,62.8184953 71.2253919,63.2100576 70.0844011,63.2100576 C69.1259689,63.2100576 68.1789607,62.7617471 67.2433483,61.8651126 C66.3077359,60.9684781 65.3150888,59.6689451 64.2653773,57.9664746 Z M63.6492454,44.5170246 C62.2800564,45.016416 60.2890574,45.5441739 57.6761886,46.1003143 C55.0633197,46.6564547 53.2548765,47.0650415 52.2508046,47.326087 C51.2467327,47.5871324 50.2883148,48.0978659 49.3755222,48.8583028 C48.4627296,49.6187396 48.0063402,50.6799303 48.0063402,52.0419068 C48.0063402,53.4492824 48.5425978,54.6466687 49.6151291,55.6341016 C50.6876604,56.6215345 52.091058,57.1152436 53.825364,57.1152436 C55.673769,57.1152436 57.3795246,56.7123316 58.942682,55.9064955 C60.5058393,55.1006595 61.6525179,54.062168 62.382752,52.79099 C63.2270851,51.3836144 63.6492454,49.0682892 63.6492454,45.844945 L63.6492454,44.5170246 Z M86.9076195,30.556836 L86.9076195,31.680461 C88.5506462,29.5239983 90.3476797,27.9407244 92.2987739,26.9305919 C94.2498682,25.9204594 96.4918814,25.4154007 99.0248809,25.4154007 C101.489421,25.4154007 103.6915,25.9488335 105.631184,27.015715 C107.570869,28.0825966 109.019905,29.5920978 109.978337,31.544264 C110.594473,32.6792444 110.993813,33.9050048 111.176372,35.221582 C111.35893,36.5381592 111.450208,38.2179049 111.450208,40.2608696 L111.450208,57.5578837 C111.450208,59.4192515 111.022343,60.826606 110.1666,61.7799895 C109.310857,62.733373 108.198408,63.2100576 106.829219,63.2100576 C105.43721,63.2100576 104.307646,62.7220234 103.440493,61.7459403 C102.57334,60.7698572 102.13977,59.3738523 102.13977,57.5578837 L102.13977,42.0654793 C102.13977,39.0010323 101.711905,36.6573331 100.856162,35.0343112 C100.000419,33.4112892 98.2946632,32.5997905 95.7388439,32.5997905 C94.0729974,32.5997905 92.5555024,33.0934995 91.1863135,34.0809324 C89.8171246,35.0683653 88.8130678,36.4246465 88.1741129,38.1498167 C87.7177166,39.5344927 87.4895219,42.1222091 87.4895219,45.9130435 L87.4895219,57.5578837 C87.4895219,59.4419511 87.050247,60.8549804 86.1716842,61.7970141 C85.2931213,62.7390478 84.1578525,63.2100576 82.7658437,63.2100576 C81.4194746,63.2100576 80.3127302,62.7220234 79.4455772,61.7459403 C78.5784242,60.7698572 78.1448542,59.3738523 78.1448542,57.5578837 L78.1448542,30.693033 C78.1448542,28.9224636 78.5327853,27.6002314 79.308659,26.7262965 C80.0845327,25.8523616 81.1456382,25.4154007 82.4920073,25.4154007 C83.3135207,25.4154007 84.0551536,25.6083445 84.7169282,25.9942378 C85.3787028,26.3801311 85.9092556,26.9589624 86.3086024,27.7307491 C86.7079491,28.5025357 86.9076195,29.4445553 86.9076195,30.556836 Z M151.241456,32.2252488 L151.241456,59.2262965 C151.241456,62.3134431 150.910574,64.9692573 150.248799,67.1938188 C149.587024,69.4183803 148.525919,71.2570208 147.065451,72.7097957 C145.604982,74.1625706 143.693852,75.2407857 141.332001,75.9444735 C138.97015,76.6481614 136.032143,77 132.517891,77 C129.300297,77 126.425043,76.5516895 123.892044,75.655055 C121.359044,74.7584205 119.40798,73.6007579 118.038791,72.1820325 C116.669602,70.763307 115.985017,69.3048792 115.985017,67.8067051 C115.985017,66.6717247 116.372949,65.7467296 117.148822,65.031692 C117.924696,64.3166544 118.860294,63.9591409 119.955646,63.9591409 C121.324834,63.9591409 122.522857,64.5606715 123.549748,65.7637507 C124.051784,66.37664 124.570927,66.9951951 125.107193,67.6194343 C125.643459,68.2436735 126.236765,68.7771062 126.88713,69.2197486 C127.537495,69.6623909 128.319061,69.9915303 129.231854,70.2071765 C130.144647,70.4228228 131.194342,70.5306443 132.380973,70.5306443 C134.799873,70.5306443 136.676775,70.1958301 138.011734,69.5261917 C139.346693,68.8565533 140.282292,67.9202086 140.818557,66.7171294 C141.354823,65.5140502 141.668591,64.2258668 141.75987,62.8525406 C141.851149,61.4792144 141.919608,59.2717107 141.965247,56.2299633 C140.527599,58.2275288 138.867482,59.7483796 136.984848,60.7925616 C135.102213,61.8367435 132.8602,62.3588266 130.258741,62.3588266 C127.132426,62.3588266 124.399794,61.5643523 122.060763,59.9753798 C119.721732,58.3864073 117.924698,56.1618792 116.669609,53.3017287 C115.414519,50.4415782 114.786983,47.1388349 114.786983,43.3933997 C114.786983,40.601348 115.169209,38.0817294 115.933673,35.8344683 C116.698137,33.5872072 117.787767,31.6918184 119.202595,30.1482452 C120.617424,28.6046719 122.249016,27.4413345 124.097421,26.658198 C125.945826,25.8750616 127.976759,25.4834992 130.190282,25.4834992 C132.83738,25.4834992 135.130737,25.9885579 137.070421,26.9986904 C139.010106,28.0088229 140.812844,29.5920968 142.478691,31.7485595 L142.478691,30.4887376 C142.478691,28.8770655 142.878031,27.6286058 143.676725,26.7433211 C144.475418,25.8580364 145.502295,25.4154007 146.757385,25.4154007 C148.56015,25.4154007 149.758172,25.9999068 150.351488,27.1689366 C150.944803,28.3379664 151.241456,30.0233869 151.241456,32.2252488 Z M124.16588,44.006286 C124.16588,47.7744208 124.993086,50.6231788 126.647523,52.5526454 C128.30196,54.482112 130.441285,55.4468308 133.065564,55.4468308 C134.617311,55.4468308 136.083462,55.0325692 137.464061,54.2040335 C138.84466,53.3754979 139.968519,52.1270382 140.835672,50.4586171 C141.702825,48.790196 142.136395,46.7642864 142.136395,44.3808277 C142.136395,40.5899933 141.297779,37.6390886 139.620523,35.5280251 C137.943267,33.4169617 135.735483,32.3614458 132.997105,32.3614458 C130.327186,32.3614458 128.187861,33.3715631 126.579064,35.3918282 C124.970267,37.4120932 124.16588,40.2835504 124.16588,44.006286 Z M181.140363,46.5940283 L162.861782,46.5940283 C162.884602,48.7050917 163.312467,50.5664316 164.145391,52.1781037 C164.978314,53.7897758 166.085058,55.0041866 167.465657,55.8213724 C168.846256,56.6385583 170.369456,57.0471451 172.035302,57.0471451 C173.153473,57.0471451 174.174645,56.9166243 175.098847,56.6555788 C176.02305,56.3945334 176.918714,55.9859466 177.785867,55.4298062 C178.65302,54.8736658 179.451702,54.2778101 180.181936,53.6422211 C180.91217,53.0066321 181.859178,52.1440599 183.022988,51.0544788 C183.502205,50.6458859 184.186789,50.4415925 185.076762,50.4415925 C186.035194,50.4415925 186.811056,50.702634 187.404371,51.224725 C187.997686,51.746816 188.294339,52.4845421 188.294339,53.4379256 C188.294339,54.2778111 187.963457,55.2595544 187.301682,56.3831849 C186.639908,57.5068155 185.641556,58.5850306 184.306597,59.6178628 C182.971637,60.6506949 181.294406,61.5075922 179.274853,62.1885804 C177.255299,62.8695686 174.933418,63.2100576 172.309139,63.2100576 C166.307527,63.2100576 161.640945,61.5076126 158.309252,58.1026716 C154.977559,54.6977305 153.311737,50.0784297 153.311737,44.2446307 C153.311737,41.4979782 153.722488,38.9499856 154.544001,36.6005762 C155.365515,34.2511669 156.563537,32.236607 158.138104,30.556836 C159.712672,28.8770651 161.652327,27.5888817 163.957128,26.6922472 C166.261929,25.7956128 168.81771,25.3473023 171.624548,25.3473023 C175.275718,25.3473023 178.407691,26.1134025 181.02056,27.645626 C183.633429,29.1778495 185.590198,31.1583605 186.890928,33.5872184 C188.191657,36.0160764 188.842012,38.4902965 188.842012,41.0099529 C188.842012,43.3480124 188.168838,44.8631884 186.822469,45.5555265 C185.4761,46.2478645 183.582083,46.5940283 181.140363,46.5940283 Z M162.861782,41.316396 L179.805411,41.316396 C179.577212,38.138451 178.715777,35.7607028 177.221079,34.1830801 C175.726382,32.6054575 173.758202,31.8166579 171.316482,31.8166579 C168.988861,31.8166579 167.07773,32.6168071 165.583032,34.2171294 C164.088334,35.8174517 163.18126,38.1838502 162.861782,41.316396 Z M202.105357,49.7946569 L202.105357,57.5578837 C202.105357,59.4419511 201.660378,60.8549804 200.770405,61.7970141 C199.880432,62.7390478 198.750868,63.2100576 197.381679,63.2100576 C196.03531,63.2100576 194.928566,62.733373 194.061413,61.7799895 C193.19426,60.826606 192.76069,59.4192515 192.76069,57.5578837 L192.76069,31.680461 C192.76069,27.5037333 194.278185,25.4154007 197.31322,25.4154007 C198.864967,25.4154007 199.983122,25.903435 200.667716,26.8795181 C201.352311,27.8556012 201.728832,29.2970046 201.797291,31.2037716 C202.915462,29.2970046 204.062141,27.8556012 205.237361,26.8795181 C206.412582,25.903435 207.981421,25.4154007 209.943925,25.4154007 C211.906429,25.4154007 213.811855,25.903435 215.66026,26.8795181 C217.508665,27.8556012 218.432854,29.1494594 218.432854,30.7611315 C218.432854,31.8961118 218.039218,32.8324566 217.251934,33.5701938 C216.46465,34.3079311 215.614625,34.6767941 214.701832,34.6767941 C214.359535,34.6767941 213.532329,34.4668259 212.22019,34.0468832 C210.908051,33.6269405 209.749962,33.4169722 208.74589,33.4169722 C207.376701,33.4169722 206.258547,33.7744857 205.391394,34.4895233 C204.524241,35.2045609 203.851067,36.2657517 203.371851,37.6731273 C202.892635,39.0805029 202.561752,40.7545738 202.379194,42.6953903 C202.196635,44.6362067 202.105357,47.0026052 202.105357,49.7946569 Z M228.992064,30.693033 L228.992064,57.5578837 C228.992064,59.4192515 228.547084,60.826606 227.657111,61.7799895 C226.767139,62.733373 225.637575,63.2100576 224.268386,63.2100576 C222.899197,63.2100576 221.786748,62.7220234 220.931005,61.7459403 C220.075261,60.7698572 219.647396,59.3738523 219.647396,57.5578837 L219.647396,30.9654269 C219.647396,29.1267587 220.075261,27.7421035 220.931005,26.8114196 C221.786748,25.8807357 222.899197,25.4154007 224.268386,25.4154007 C225.637575,25.4154007 226.767139,25.8807357 227.657111,26.8114196 C228.547084,27.7421035 228.992064,29.0359617 228.992064,30.693033 Z M224.371074,21.0911472 C223.070345,21.0911472 221.957896,20.69391 221.033693,19.8994238 C220.109491,19.1049375 219.647396,17.9813238 219.647396,16.528549 C219.647396,15.2119718 220.1209,14.1280818 221.067923,13.2768465 C222.014945,12.4256112 223.115985,12 224.371074,12 C225.580525,12 226.65304,12.3858875 227.588652,13.1576742 C228.524265,13.9294608 228.992064,15.0530745 228.992064,16.528549 C228.992064,17.9586242 228.535675,19.0765631 227.622882,19.8823992 C226.710089,20.6882352 225.626164,21.0911472 224.371074,21.0911472 Z M243.248066,30.556836 L243.248066,31.680461 C244.891093,29.5239983 246.688126,27.9407244 248.63922,26.9305919 C250.590315,25.9204594 252.832328,25.4154007 255.365327,25.4154007 C257.829867,25.4154007 260.031947,25.9488335 261.971631,27.015715 C263.911315,28.0825966 265.360352,29.5920978 266.318784,31.544264 C266.934919,32.6792444 267.33426,33.9050048 267.516818,35.221582 C267.699377,36.5381592 267.790655,38.2179049 267.790655,40.2608696 L267.790655,57.5578837 C267.790655,59.4192515 267.36279,60.826606 266.507046,61.7799895 C265.651303,62.733373 264.538854,63.2100576 263.169665,63.2100576 C261.777656,63.2100576 260.648093,62.7220234 259.78094,61.7459403 C258.913787,60.7698572 258.480217,59.3738523 258.480217,57.5578837 L258.480217,42.0654793 C258.480217,39.0010323 258.052351,36.6573331 257.196608,35.0343112 C256.340865,33.4112892 254.63511,32.5997905 252.07929,32.5997905 C250.413444,32.5997905 248.895949,33.0934995 247.52676,34.0809324 C246.157571,35.0683653 245.153514,36.4246465 244.514559,38.1498167 C244.058163,39.5344927 243.829968,42.1222091 243.829968,45.9130435 L243.829968,57.5578837 C243.829968,59.4419511 243.390694,60.8549804 242.512131,61.7970141 C241.633568,62.7390478 240.498299,63.2100576 239.10629,63.2100576 C237.759921,63.2100576 236.653177,62.7220234 235.786024,61.7459403 C234.918871,60.7698572 234.485301,59.3738523 234.485301,57.5578837 L234.485301,30.693033 C234.485301,28.9224636 234.873232,27.6002314 235.649105,26.7262965 C236.424979,25.8523616 237.486085,25.4154007 238.832454,25.4154007 C239.653967,25.4154007 240.3956,25.6083445 241.057375,25.9942378 C241.719149,26.3801311 242.249702,26.9589624 242.649049,27.7307491 C243.048396,28.5025357 243.248066,29.4445553 243.248066,30.556836 Z M299.298351,46.5940283 L281.01977,46.5940283 C281.04259,48.7050917 281.470455,50.5664316 282.303378,52.1781037 C283.136302,53.7897758 284.243046,55.0041866 285.623645,55.8213724 C287.004244,56.6385583 288.527444,57.0471451 290.19329,57.0471451 C291.311461,57.0471451 292.332632,56.9166243 293.256835,56.6555788 C294.181037,56.3945334 295.076702,55.9859466 295.943855,55.4298062 C296.811008,54.8736658 297.609689,54.2778101 298.339923,53.6422211 C299.070157,53.0066321 300.017166,52.1440599 301.180976,51.0544788 C301.660192,50.6458859 302.344776,50.4415925 303.234749,50.4415925 C304.193182,50.4415925 304.969044,50.702634 305.562359,51.224725 C306.155674,51.746816 306.452327,52.4845421 306.452327,53.4379256 C306.452327,54.2778111 306.121445,55.2595544 305.45967,56.3831849 C304.797896,57.5068155 303.799544,58.5850306 302.464584,59.6178628 C301.129625,60.6506949 299.452394,61.5075922 297.43284,62.1885804 C295.413287,62.8695686 293.091405,63.2100576 290.467126,63.2100576 C284.465515,63.2100576 279.798933,61.5076126 276.46724,58.1026716 C273.135547,54.6977305 271.469725,50.0784297 271.469725,44.2446307 C271.469725,41.4979782 271.880476,38.9499856 272.701989,36.6005762 C273.523502,34.2511669 274.721525,32.236607 276.296092,30.556836 C277.870659,28.8770651 279.810314,27.5888817 282.115116,26.6922472 C284.419917,25.7956128 286.975698,25.3473023 289.782535,25.3473023 C293.433706,25.3473023 296.565679,26.1134025 299.178547,27.645626 C301.791416,29.1778495 303.748186,31.1583605 305.048916,33.5872184 C306.349645,36.0160764 307,38.4902965 307,41.0099529 C307,43.3480124 306.326826,44.8631884 304.980456,45.5555265 C303.634087,46.2478645 301.740071,46.5940283 299.298351,46.5940283 Z M281.01977,41.316396 L297.963398,41.316396 C297.7352,38.138451 296.873765,35.7607028 295.379067,34.1830801 C293.884369,32.6054575 291.91619,31.8166579 289.474469,31.8166579 C287.146848,31.8166579 285.235717,32.6168071 283.741019,34.2171294 C282.246322,35.8174517 281.339248,38.1838502 281.01977,41.316396 Z" id="Tangerine" fill="url(#linearGradient-1)"></path>
            <g id="Group" transform="translate(148.000000, 0.000000)" fill-rule="nonzero">
                <path d="M40.0240677,0.665301834 C40.8102956,0.042293688 41.8812989,-0.262980303 42.5932375,0.285266865 C43.4908992,0.964345743 42.6551452,2.02968967 42.4322774,2.8271401 C40.9155387,8.09155893 37.5477595,11.9292891 33.0718325,14.7639762 C23.3089874,20.9629072 12.369896,23.6667626 1.02221368,25 C0.786964403,22.9440731 2.47085397,22.2089235 3.67805422,21.2121105 C10.184554,15.8853908 17.5577616,11.99782 24.8876339,8.09155893 C29.8278687,5.40639382 34.9043005,3.01404254 40.0240677,0.665301834 Z" id="Shape" fill="#66BF8B"></path>
                <path d="M41.2565709,1 C41.4690988,1.21559187 42.3754678,1.16486437 41.8253956,1.63409375 C41.0440429,2.26818749 39.9501493,2.54718874 39.0375294,2.9973953 C27.0172007,8.79301215 15.0718818,14.7281296 4.47674019,23.0347577 C3.53894832,23.8733501 2.66934931,24.7872936 1.87639866,25.7677018 C-0.836457649,26.7378652 0.169924529,24.4107411 0.23868356,23.5356918 C0.694993492,17.6386199 3.80790234,13.3901918 8.6210345,10.2958143 C12.5184607,7.89585266 16.7527558,6.11058198 21.1789339,5.00113155 C27.7692353,3.18507398 34.4787913,1.8479736 41.2565709,1 Z" id="Shape" fill="#309A63"></path>
            </g>
        </g>
    </g>
</svg>